<?xml version="1.0" encoding="utf-8"?>
<!DOCTYPE svg PUBLIC "-//W3C//DTD SVG 1.1//EN" "http://www.w3.org/Graphics/SVG/1.1/DTD/svg11.dtd">
<svg xmlns="http://www.w3.org/2000/svg" version="1.1" width="512px" height="512px" style="shape-rendering:geometricPrecision; text-rendering:geometricPrecision; image-rendering:optimizeQuality; fill-rule:evenodd; clip-rule:evenodd" xmlns:xlink="http://www.w3.org/1999/xlink">
	<g>
		<path style="opacity:0.972" fill="#010000" d="M 337.5,-0.5 C 343.5,-0.5 349.5,-0.5 355.5,-0.5C 377.694,7.188 387.194,22.8547 384,46.5C 383.121,51.1356 381.455,55.469 379,59.5C 288.029,152.805 196.695,245.805 105,338.5C 104.667,361.167 104.333,383.833 104,406.5C 100.814,411.505 96.6469,412.505 91.5,409.5C 91.5386,408.244 91.0386,407.244 90,406.5C 89.6667,384.833 89.3333,363.167 89,341.5C 82.7117,320.433 68.5451,310.266 46.5,311C 41.5926,311.792 37.2593,313.626 33.5,316.5C 23.7589,321.606 17.5922,329.606 15,340.5C 14.5,392.499 14.3333,444.499 14.5,496.5C 15.5,496.5 16.5,496.5 17.5,496.5C 41.5,496.5 65.5,496.5 89.5,496.5C 89.3334,475.831 89.5,455.164 90,434.5C 91.0386,433.756 91.5386,432.756 91.5,431.5C 94.408,430.431 97.408,430.264 100.5,431C 102.333,431.5 103.5,432.667 104,434.5C 104.667,457.5 104.667,480.5 104,503.5C 102.695,506.961 100.529,509.628 97.5,511.5C 67.1667,511.5 36.8333,511.5 6.5,511.5C 6.5,510.833 6.16667,510.5 5.5,510.5C 2.7301,507.945 0.730104,504.945 -0.5,501.5C -0.5,446.833 -0.5,392.167 -0.5,337.5C 5.01844,317.476 17.6851,303.976 37.5,297C 111.5,221.667 185.5,146.333 259.5,71C 261.74,70.023 264.073,69.523 266.5,69.5C 267.833,70.9335 269.333,72.2668 271,73.5C 272.301,75.3646 272.635,77.3646 272,79.5C 265.948,86.9543 259.448,93.9543 252.5,100.5C 251.172,122.337 251.172,144.337 252.5,166.5C 253.107,166.376 253.44,166.043 253.5,165.5C 270.104,148.395 286.938,131.395 304,114.5C 304.5,107.174 304.666,99.8409 304.5,92.5C 304.667,77.8295 304.5,63.1629 304,48.5C 300.133,52.7016 295.967,56.5349 291.5,60C 289.833,60.6667 288.167,60.6667 286.5,60C 284.638,58.6343 282.972,57.1343 281.5,55.5C 281.337,53.1432 281.503,50.8098 282,48.5C 294.804,34.6955 307.971,21.1955 321.5,8C 326.483,4.344 331.816,1.51066 337.5,-0.5 Z"/>
	</g>
	<g>
		<path style="opacity:1" fill="#d62e3c" d="M 366.5,26.5 C 352.327,44.3472 336.66,61.0139 319.5,76.5C 319.333,61.4963 319.5,46.4963 320,31.5C 325.677,24.4817 332.511,18.9817 340.5,15C 351.895,12.9552 360.561,16.7886 366.5,26.5 Z"/>
	</g>
	<g>
		<path style="opacity:1" fill="#c2222f" d="M 366.5,26.5 C 371.025,35.8599 370.191,44.8599 364,53.5C 349.333,68.1667 334.667,82.8333 320,97.5C 319.5,90.5079 319.334,83.5079 319.5,76.5C 336.66,61.0139 352.327,44.3472 366.5,26.5 Z"/>
	</g>
	<g>
		<path style="opacity:0.996" fill="#e8e8e8" d="M 304.5,92.5 C 287.167,110.167 269.833,127.833 252.5,145.5C 252.5,130.5 252.5,115.5 252.5,100.5C 259.448,93.9543 265.948,86.9543 272,79.5C 272.635,77.3646 272.301,75.3646 271,73.5C 269.333,72.2668 267.833,70.9335 266.5,69.5C 271.5,64.8333 276.5,60.1667 281.5,55.5C 282.972,57.1343 284.638,58.6343 286.5,60C 288.167,60.6667 289.833,60.6667 291.5,60C 295.967,56.5349 300.133,52.7016 304,48.5C 304.5,63.1629 304.667,77.8295 304.5,92.5 Z"/>
	</g>
	<g>
		<path style="opacity:1" fill="#c5c0c7" d="M 304.5,92.5 C 304.666,99.8409 304.5,107.174 304,114.5C 286.938,131.395 270.104,148.395 253.5,165.5C 252.509,159.021 252.176,152.354 252.5,145.5C 269.833,127.833 287.167,110.167 304.5,92.5 Z"/>
	</g>
	<g>
		<path style="opacity:1" fill="#7d7d7e" d="M 252.5,100.5 C 252.5,115.5 252.5,130.5 252.5,145.5C 252.176,152.354 252.509,159.021 253.5,165.5C 253.44,166.043 253.107,166.376 252.5,166.5C 251.172,144.337 251.172,122.337 252.5,100.5 Z"/>
	</g>
	<g>
		<path style="opacity:1" fill="#d62e3c" d="M 236.5,162.5 C 219.527,180.14 202.194,197.473 184.5,214.5C 184.333,199.496 184.5,184.496 185,169.5C 201.638,151.862 218.638,134.528 236,117.5C 236.5,132.496 236.667,147.496 236.5,162.5 Z"/>
	</g>
	<g>
		<path style="opacity:1" fill="#c2222f" d="M 236.5,162.5 C 236.666,169.508 236.5,176.508 236,183.5C 218.638,200.528 201.638,217.862 185,235.5C 184.5,228.508 184.334,221.508 184.5,214.5C 202.194,197.473 219.527,180.14 236.5,162.5 Z"/>
	</g>
	<g>
		<path style="opacity:1" fill="#e8e8e8" d="M 169.5,231.5 C 151.854,248.479 134.521,265.812 117.5,283.5C 117.5,268.5 117.5,253.5 117.5,238.5C 134.827,221.006 151.994,203.339 169,185.5C 169.5,200.83 169.667,216.163 169.5,231.5 Z"/>
	</g>
	<g>
		<path style="opacity:1" fill="#c5c0c7" d="M 169.5,231.5 C 169.666,238.175 169.5,244.842 169,251.5C 151.938,268.395 135.104,285.395 118.5,302.5C 117.51,296.355 117.177,290.022 117.5,283.5C 134.521,265.812 151.854,248.479 169.5,231.5 Z"/>
	</g>
	<g>
		<path style="opacity:1" fill="#777777" d="M 117.5,238.5 C 117.5,253.5 117.5,268.5 117.5,283.5C 117.177,290.022 117.51,296.355 118.5,302.5C 118.44,303.043 118.107,303.376 117.5,303.5C 116.172,281.67 116.172,260.004 117.5,238.5 Z"/>
	</g>
	<g>
		<path style="opacity:0.981" fill="#010202" d="M 511.5,367.5 C 511.5,397.167 511.5,426.833 511.5,456.5C 509.562,463.464 505.895,469.464 500.5,474.5C 498.174,476.33 495.507,477.663 492.5,478.5C 491.709,484.836 491.042,491.17 490.5,497.5C 489.024,499.769 487.524,502.102 486,504.5C 483.809,505.833 481.976,507.5 480.5,509.5C 479.005,509.989 477.671,510.655 476.5,511.5C 460.833,511.5 445.167,511.5 429.5,511.5C 421.753,508.915 416.919,503.581 415,495.5C 414.501,490.177 414.334,484.844 414.5,479.5C 406.493,479.666 398.493,479.5 390.5,479C 389.429,478.148 388.429,477.315 387.5,476.5C 387.938,476.565 388.272,476.399 388.5,476C 385.441,471.63 386.108,467.963 390.5,465C 422.833,464.667 455.167,464.333 487.5,464C 492.099,462.402 494.932,459.235 496,454.5C 496.5,447.508 496.666,440.508 496.5,433.5C 479.83,433.667 463.163,433.5 446.5,433C 429.521,425.258 425.354,413.091 434,396.5C 437.06,393.386 440.56,390.886 444.5,389C 461.682,385.813 479.015,383.98 496.5,383.5C 497.875,371.454 494.208,361.287 485.5,353C 479.689,348.69 474.023,344.19 468.5,339.5C 462.905,346.921 455.571,351.755 446.5,354C 377.5,354.667 308.5,354.667 239.5,354C 233.42,352.461 228.087,349.628 223.5,345.5C 221.831,343.491 220.164,341.491 218.5,339.5C 210.56,345.27 203.06,351.603 196,358.5C 191.069,366.09 189.235,374.423 190.5,383.5C 194.5,383.5 198.5,383.5 202.5,383.5C 216.208,384.593 229.875,386.759 243.5,390C 257.412,398.73 260.246,410.23 252,424.5C 249.292,428.104 245.792,430.604 241.5,432C 228.561,433.422 215.561,433.922 202.5,433.5C 198.5,433.5 194.5,433.5 190.5,433.5C 190.334,441.174 190.5,448.841 191,456.5C 192.916,460.085 195.749,462.585 199.5,464C 253.166,464.5 306.832,464.667 360.5,464.5C 366.696,466.775 368.029,470.775 364.5,476.5C 364.047,477.458 363.381,478.292 362.5,479C 332.502,479.5 302.502,479.667 272.5,479.5C 272.911,486.66 272.078,493.66 270,500.5C 266.876,505.464 262.709,509.13 257.5,511.5C 241.833,511.5 226.167,511.5 210.5,511.5C 204.333,509.507 199.833,505.507 197,499.5C 195.616,492.589 195.116,485.589 195.5,478.5C 184.202,475.935 177.369,468.935 175,457.5C 174.333,428.5 174.333,399.5 175,370.5C 176.345,362.478 179.345,355.145 184,348.5C 193.409,339.086 203.409,330.42 214,322.5C 215.49,313.052 217.49,303.719 220,294.5C 221.945,290.61 225.112,288.943 229.5,289.5C 232.956,291.405 234.623,294.405 234.5,298.5C 233.322,305.233 231.822,311.9 230,318.5C 228.612,327.891 232.112,334.724 240.5,339C 308.833,339.667 377.167,339.667 445.5,339C 448.617,338.037 450.951,336.204 452.5,333.5C 454.136,332.251 455.303,330.584 456,328.5C 456.667,324.5 456.667,320.5 456,316.5C 452.629,302.72 449.463,288.886 446.5,275C 443.388,265.717 437.055,260.217 427.5,258.5C 413.01,257.504 398.343,257.171 383.5,257.5C 383.5,263.833 383.5,270.167 383.5,276.5C 382.391,282.109 379.058,285.609 373.5,287C 353.167,287.667 332.833,287.667 312.5,287C 308.183,284.685 305.35,281.185 304,276.5C 303.5,270.175 303.334,263.842 303.5,257.5C 288.83,257.333 274.163,257.5 259.5,258C 256.97,258.379 254.637,259.213 252.5,260.5C 248.411,263.083 244.744,266.25 241.5,270C 238.922,271.813 236.255,271.98 233.5,270.5C 229.213,267.378 228.379,263.378 231,258.5C 237.727,250.388 246.227,245.221 256.5,243C 314.5,242.333 372.5,242.333 430.5,243C 444.449,245.718 454.282,253.551 460,266.5C 464.715,285.074 469.048,303.741 473,322.5C 482.333,330.5 491.667,338.5 501,346.5C 505.942,352.854 509.442,359.854 511.5,367.5 Z"/>
	</g>
	<g>
		<path style="opacity:1" fill="#64141b" d="M 100.5,255.5 C 100.56,254.957 100.893,254.624 101.5,254.5C 102.828,276.33 102.828,297.996 101.5,319.5C 101.5,313.167 101.5,306.833 101.5,300.5C 101.829,285.324 101.496,270.324 100.5,255.5 Z"/>
	</g>
	<g>
		<path style="opacity:1" fill="#d62e3c" d="M 100.5,255.5 C 101.496,270.324 101.829,285.324 101.5,300.5C 98.4483,303.555 95.1149,306.222 91.5,308.5C 83.3109,301.954 74.6442,296.287 65.5,291.5C 77.1941,279.473 88.8608,267.473 100.5,255.5 Z"/>
	</g>
	<g>
		<path style="opacity:1" fill="#919497" d="M 427.5,258.5 C 413.167,258.5 398.833,258.5 384.5,258.5C 384.823,264.69 384.49,270.69 383.5,276.5C 383.5,270.167 383.5,263.833 383.5,257.5C 398.343,257.171 413.01,257.504 427.5,258.5 Z"/>
	</g>
	<g>
		<path style="opacity:1" fill="#f3f8fd" d="M 383.5,276.5 C 384.49,270.69 384.823,264.69 384.5,258.5C 398.833,258.5 413.167,258.5 427.5,258.5C 437.055,260.217 443.388,265.717 446.5,275C 449.463,288.886 452.629,302.72 456,316.5C 456.667,320.5 456.667,324.5 456,328.5C 455.303,330.584 454.136,332.251 452.5,333.5C 388.166,333.667 323.832,333.5 259.5,333C 244.163,325.811 238.996,313.978 244,297.5C 246.679,285.12 249.512,272.787 252.5,260.5C 254.637,259.213 256.97,258.379 259.5,258C 274.163,257.5 288.83,257.333 303.5,257.5C 303.334,263.842 303.5,270.175 304,276.5C 305.35,281.185 308.183,284.685 312.5,287C 332.833,287.667 353.167,287.667 373.5,287C 379.058,285.609 382.391,282.109 383.5,276.5 Z"/>
	</g>
	<g>
		<path style="opacity:1" fill="#d6e0f0" d="M 252.5,260.5 C 249.512,272.787 246.679,285.12 244,297.5C 238.996,313.978 244.163,325.811 259.5,333C 323.832,333.5 388.166,333.667 452.5,333.5C 450.951,336.204 448.617,338.037 445.5,339C 377.167,339.667 308.833,339.667 240.5,339C 232.112,334.724 228.612,327.891 230,318.5C 231.822,311.9 233.322,305.233 234.5,298.5C 234.623,294.405 232.956,291.405 229.5,289.5C 230.833,283.167 232.167,276.833 233.5,270.5C 236.255,271.98 238.922,271.813 241.5,270C 244.744,266.25 248.411,263.083 252.5,260.5 Z"/>
	</g>
	<g>
		<path style="opacity:1" fill="#495056" d="M 318.5,257.5 C 335.5,257.5 352.5,257.5 369.5,257.5C 369.5,262.833 369.5,268.167 369.5,273.5C 352.5,273.5 335.5,273.5 318.5,273.5C 318.5,268.167 318.5,262.833 318.5,257.5 Z"/>
	</g>
	<g>
		<path style="opacity:1" fill="#7d8a93" d="M 319.5,258.5 C 335.833,258.5 352.167,258.5 368.5,258.5C 368.5,263.167 368.5,267.833 368.5,272.5C 352.167,272.5 335.833,272.5 319.5,272.5C 319.5,267.833 319.5,263.167 319.5,258.5 Z"/>
	</g>
	<g>
		<path style="opacity:1" fill="#be222e" d="M 65.5,291.5 C 74.6442,296.287 83.3109,301.954 91.5,308.5C 95.1149,306.222 98.4483,303.555 101.5,300.5C 101.5,306.833 101.5,313.167 101.5,319.5C 100.542,320.962 99.3756,322.295 98,323.5C 89.482,308.992 76.982,299.826 60.5,296C 62.0375,294.293 63.7041,292.793 65.5,291.5 Z"/>
	</g>
	<g>
		<path style="opacity:1" fill="#f1d132" d="M 91.5,409.5 C 91.5,416.833 91.5,424.167 91.5,431.5C 91.5386,432.756 91.0386,433.756 90,434.5C 89.5,455.164 89.3334,475.831 89.5,496.5C 65.5,496.5 41.5,496.5 17.5,496.5C 17.3333,446.166 17.5,395.832 18,345.5C 20.0368,334.089 25.2035,324.423 33.5,316.5C 37.2593,313.626 41.5926,311.792 46.5,311C 68.5451,310.266 82.7117,320.433 89,341.5C 89.3333,363.167 89.6667,384.833 90,406.5C 91.0386,407.244 91.5386,408.244 91.5,409.5 Z"/>
	</g>
	<g>
		<path style="opacity:1" fill="#e5a22a" d="M 33.5,316.5 C 25.2035,324.423 20.0368,334.089 18,345.5C 17.5,395.832 17.3333,446.166 17.5,496.5C 16.5,496.5 15.5,496.5 14.5,496.5C 14.3333,444.499 14.5,392.499 15,340.5C 17.5922,329.606 23.7589,321.606 33.5,316.5 Z"/>
	</g>
	<g>
		<path style="opacity:1" fill="#050301" d="M 44.5,331.5 C 67.9503,330.116 77.1169,340.783 72,363.5C 62.2288,376.754 50.3955,378.921 36.5,370C 25.0419,354.117 27.7085,341.284 44.5,331.5 Z"/>
	</g>
	<g>
		<path style="opacity:1" fill="#6c9ad0" d="M 387.5,476.5 C 379.833,476.5 372.167,476.5 364.5,476.5C 368.029,470.775 366.696,466.775 360.5,464.5C 308.336,463.501 256.003,463.168 203.5,463.5C 202.604,453.532 202.271,443.532 202.5,433.5C 215.561,433.922 228.561,433.422 241.5,432C 245.792,430.604 249.292,428.104 252,424.5C 260.246,410.23 257.412,398.73 243.5,390C 229.875,386.759 216.208,384.593 202.5,383.5C 201.738,366.344 208.738,353.677 223.5,345.5C 228.087,349.628 233.42,352.461 239.5,354C 308.5,354.667 377.5,354.667 446.5,354C 455.571,351.755 462.905,346.921 468.5,339.5C 474.023,344.19 479.689,348.69 485.5,353C 494.208,361.287 497.875,371.454 496.5,383.5C 479.015,383.98 461.682,385.813 444.5,389C 440.56,390.886 437.06,393.386 434,396.5C 425.354,413.091 429.521,425.258 446.5,433C 463.163,433.5 479.83,433.667 496.5,433.5C 496.666,440.508 496.5,447.508 496,454.5C 494.932,459.235 492.099,462.402 487.5,464C 455.167,464.333 422.833,464.667 390.5,465C 386.108,467.963 385.441,471.63 388.5,476C 388.272,476.399 387.938,476.565 387.5,476.5 Z"/>
	</g>
	<g>
		<path style="opacity:1" fill="#5174b6" d="M 223.5,345.5 C 208.738,353.677 201.738,366.344 202.5,383.5C 198.5,383.5 194.5,383.5 190.5,383.5C 189.235,374.423 191.069,366.09 196,358.5C 203.06,351.603 210.56,345.27 218.5,339.5C 220.164,341.491 221.831,343.491 223.5,345.5 Z"/>
	</g>
	<g>
		<path style="opacity:1" fill="#de9c29" d="M 49.5,345.5 C 56.319,345.483 59.4856,348.817 59,355.5C 54.8334,361.759 50.1668,362.092 45,356.5C 43.7758,351.626 45.2758,347.959 49.5,345.5 Z"/>
	</g>
	<g>
		<path style="opacity:1" fill="#010102" d="M 286.5,386.5 C 324.168,386.333 361.835,386.5 399.5,387C 404.472,388.791 407.139,392.291 407.5,397.5C 405.712,408.521 403.878,419.521 402,430.5C 400.457,432.378 398.624,433.878 396.5,435C 360.833,435.667 325.167,435.667 289.5,435C 286.619,433.749 284.786,431.583 284,428.5C 282.241,418.37 280.741,408.203 279.5,398C 279.586,392.758 281.919,388.924 286.5,386.5 Z"/>
	</g>
	<g>
		<path style="opacity:1" fill="#e2a02a" d="M 207.5,399.5 C 205.833,399.5 204.167,399.5 202.5,399.5C 202.5,405.833 202.5,412.167 202.5,418.5C 198.5,418.5 194.5,418.5 190.5,418.5C 190.5,411.833 190.5,405.167 190.5,398.5C 196.358,398.178 202.025,398.511 207.5,399.5 Z"/>
	</g>
	<g>
		<path style="opacity:1" fill="#edce31" d="M 478.5,398.5 C 484.5,398.5 490.5,398.5 496.5,398.5C 496.5,405.167 496.5,411.833 496.5,418.5C 480.83,418.667 465.163,418.5 449.5,418C 444.857,415.928 443.357,412.428 445,407.5C 445.833,405.333 447.333,403.833 449.5,403C 459.327,401.6 468.993,400.1 478.5,398.5 Z"/>
	</g>
	<g>
		<path style="opacity:1" fill="#eecf32" d="M 207.5,399.5 C 216.888,400.217 226.221,401.384 235.5,403C 240.617,404.732 242.45,408.232 241,413.5C 240.167,415.667 238.667,417.167 236.5,418C 225.172,418.5 213.838,418.667 202.5,418.5C 202.5,412.167 202.5,405.833 202.5,399.5C 204.167,399.5 205.833,399.5 207.5,399.5 Z"/>
	</g>
	<g>
		<path style="opacity:1" fill="#5c6872" d="M 294.5,401.5 C 298.833,401.5 303.167,401.5 307.5,401.5C 307.653,407.845 307.986,414.178 308.5,420.5C 304.833,420.5 301.167,420.5 297.5,420.5C 296.887,414.104 295.887,407.77 294.5,401.5 Z"/>
	</g>
	<g>
		<path style="opacity:1" fill="#58646e" d="M 322.5,401.5 C 326.833,401.5 331.167,401.5 335.5,401.5C 335.5,408.167 335.5,414.833 335.5,421.5C 331.5,421.5 327.5,421.5 323.5,421.5C 323.167,414.833 322.833,408.167 322.5,401.5 Z"/>
	</g>
	<g>
		<path style="opacity:1" fill="#57636c" d="M 350.5,401.5 C 354.833,401.5 359.167,401.5 363.5,401.5C 363.265,407.849 362.765,414.183 362,420.5C 358.27,421.46 354.437,421.793 350.5,421.5C 350.5,414.833 350.5,408.167 350.5,401.5 Z"/>
	</g>
	<g>
		<path style="opacity:1" fill="#57636c" d="M 378.5,401.5 C 382.833,401.5 387.167,401.5 391.5,401.5C 390.475,407.797 389.641,414.13 389,420.5C 385.27,421.46 381.437,421.793 377.5,421.5C 377.833,414.833 378.167,408.167 378.5,401.5 Z"/>
	</g>
	<g>
		<path style="opacity:1" fill="#4c6ca6" d="M 202.5,433.5 C 202.271,443.532 202.604,453.532 203.5,463.5C 256.003,463.168 308.336,463.501 360.5,464.5C 306.832,464.667 253.166,464.5 199.5,464C 195.749,462.585 192.916,460.085 191,456.5C 190.5,448.841 190.334,441.174 190.5,433.5C 194.5,433.5 198.5,433.5 202.5,433.5 Z"/>
	</g>
	<g>
		<path style="opacity:0.631" fill="#659bcb" d="M 511.5,456.5 C 511.5,458.833 511.5,461.167 511.5,463.5C 510.024,465.769 508.524,468.102 507,470.5C 505.028,472.232 502.861,473.565 500.5,474.5C 505.895,469.464 509.562,463.464 511.5,456.5 Z"/>
	</g>
	<g>
		<path style="opacity:1" fill="#2d3338" d="M 256.5,479.5 C 241.5,479.5 226.5,479.5 211.5,479.5C 211.5,483.833 211.5,488.167 211.5,492.5C 210.514,488.03 210.181,483.363 210.5,478.5C 226.009,478.17 241.342,478.504 256.5,479.5 Z"/>
	</g>
	<g>
		<path style="opacity:1" fill="#5b6871" d="M 256.5,479.5 C 256.666,484.179 256.499,488.845 256,493.5C 255.167,494.333 254.333,495.167 253.5,496C 240.5,496.667 227.5,496.667 214.5,496C 212.574,495.578 211.574,494.411 211.5,492.5C 211.5,488.167 211.5,483.833 211.5,479.5C 226.5,479.5 241.5,479.5 256.5,479.5 Z"/>
	</g>
	<g>
		<path style="opacity:1" fill="#49545a" d="M 475.5,479.5 C 465.5,479.5 455.5,479.5 445.5,479.5C 445.5,484.833 445.5,490.167 445.5,495.5C 454.5,495.5 463.5,495.5 472.5,495.5C 459.673,496.66 446.673,496.827 433.5,496C 432.333,495.5 431.5,494.667 431,493.5C 430.501,488.511 430.334,483.511 430.5,478.5C 445.676,478.171 460.676,478.504 475.5,479.5 Z"/>
	</g>
	<g>
		<path style="opacity:1" fill="#5e6b75" d="M 475.5,479.5 C 475.666,484.179 475.499,488.845 475,493.5C 474.292,494.381 473.458,495.047 472.5,495.5C 463.5,495.5 454.5,495.5 445.5,495.5C 445.5,490.167 445.5,484.833 445.5,479.5C 455.5,479.5 465.5,479.5 475.5,479.5 Z"/>
	</g>
	<g>
		<path style="opacity:0.635" fill="#5b6670" d="M 490.5,497.5 C 489.719,503.615 486.386,507.615 480.5,509.5C 481.976,507.5 483.809,505.833 486,504.5C 487.524,502.102 489.024,499.769 490.5,497.5 Z"/>
	</g>
	<g>
		<path style="opacity:0.996" fill="#d89c28" d="M -0.5,501.5 C 0.730104,504.945 2.7301,507.945 5.5,510.5C 3.21632,510.025 1.21632,509.025 -0.5,507.5C -0.5,505.5 -0.5,503.5 -0.5,501.5 Z"/>
	</g>
</svg>
